<svg width="113" height="21" viewBox="0 0 113 21" fill="none" xmlns="http://www.w3.org/2000/svg">
<path fill-rule="evenodd" clip-rule="evenodd" d="M41.7601 11.0239C41.5339 10.798 41.2561 10.5862 40.9272 10.3961C40.5956 10.2054 40.2265 9.99232 39.8163 9.7582C39.5948 9.62728 39.3578 9.49488 39.1005 9.36281C38.8461 9.22943 38.606 9.09227 38.386 8.9456C38.166 8.79712 37.9834 8.63109 37.8377 8.4498C37.6904 8.26556 37.6171 8.04949 37.6171 7.79896C37.6171 7.28611 37.766 6.91467 38.0677 6.68761C38.3688 6.46054 38.7839 6.34668 39.3112 6.34668C39.6923 6.34668 40.0644 6.45513 40.4248 6.66644C40.7835 6.88005 41.0894 7.11827 41.3373 7.38175L42.2625 6.25678C41.9682 5.92111 41.5697 5.60135 41.0612 5.30029C40.5558 4.9976 39.9504 4.84912 39.2454 4.84912C38.22 4.84912 37.4143 5.11326 36.8348 5.64023C36.2531 6.16884 35.9635 6.88645 35.9635 7.79782C35.9635 8.23734 36.0306 8.60993 36.1615 8.92033C36.2942 9.22779 36.4767 9.50407 36.7123 9.74721C36.9464 9.98772 37.23 10.2118 37.5593 10.4189C37.8876 10.6238 38.252 10.8422 38.6448 11.0779C38.9529 11.2699 39.2424 11.4366 39.5153 11.585C39.7868 11.7299 40.0162 11.8743 40.2081 12.0121C40.3991 12.1524 40.5472 12.3131 40.6596 12.4862C40.7689 12.6641 40.8242 12.8747 40.8242 13.1248C40.8242 13.7269 40.6619 14.1257 40.3389 14.3241C40.0162 14.5231 39.5606 14.6223 38.9735 14.6223C38.5911 14.6223 38.1801 14.5267 37.7411 14.3347C37.3004 14.1446 36.8824 13.7795 36.4877 13.2362L35.4738 14.3347C35.898 14.8916 36.3918 15.324 36.9487 15.6251C37.507 15.9243 38.1739 16.0756 38.9529 16.0756C39.9655 16.0756 40.8007 15.8228 41.4614 15.3158C42.1234 14.8105 42.4543 14.0148 42.4543 12.9292C42.4543 12.4898 42.3947 12.1202 42.2794 11.8192C42.1595 11.5163 41.9879 11.253 41.7601 11.0239Z" fill="white"/>
<path fill-rule="evenodd" clip-rule="evenodd" d="M50.844 12.4669C50.844 13.1699 50.6504 13.6939 50.2716 14.0383C49.8893 14.3841 49.3597 14.5547 48.6858 14.5547C48.0105 14.5547 47.4597 14.3347 47.0355 13.8952C46.6097 13.458 46.3958 12.8836 46.3958 12.1806V8.70213C46.3958 8.02668 46.6097 7.4692 47.0355 7.02853C47.4597 6.58835 48.0042 6.36834 48.6633 6.36834C49.3537 6.36834 49.8893 6.54028 50.2716 6.88645C50.6504 7.23082 50.844 7.74909 50.844 8.43799V12.4669ZM49.1287 4.84912C48.5283 4.84912 47.9745 4.9912 47.4676 5.277C46.9639 5.56378 46.5628 5.96458 46.2696 6.4781L46.1154 5.06798H44.7269V20.7025H46.4225V14.7536C46.7001 15.2384 47.0783 15.5788 47.5557 15.7777C48.0323 15.9776 48.5424 16.0756 49.0844 16.0756C50.2151 16.0756 51.0694 15.7652 51.6497 15.1398C52.2292 14.5172 52.5192 13.6253 52.5192 12.4669V8.39336C52.5192 7.20457 52.2423 6.31551 51.6934 5.72751C51.1418 5.14082 50.2895 4.84912 49.1287 4.84912Z" fill="white"/>
<path fill-rule="evenodd" clip-rule="evenodd" d="M60.1594 12.4428C60.1594 12.7502 60.1048 13.0349 59.9957 13.2895C59.8851 13.5471 59.7281 13.7707 59.5324 13.9602C59.335 14.1521 59.1073 14.3024 58.8508 14.4122C58.5949 14.5231 58.3189 14.5757 58.0279 14.5757C57.5296 14.5757 57.1144 14.4737 56.7942 14.2696C56.4728 14.0647 56.3112 13.7131 56.3112 13.2138V11.4305L60.1594 10.6161V12.4428ZM58.527 4.84912C58.2479 4.84912 57.9437 4.88833 57.6035 4.96757C57.2681 5.05026 56.9359 5.15477 56.6037 5.27683C56.2744 5.40365 55.9594 5.54196 55.6579 5.69765C55.3558 5.84892 55.1038 6.00215 54.8987 6.14997L55.5158 7.44623C55.6903 7.33007 55.9025 7.2067 56.1545 7.07184C56.4009 6.94043 56.6616 6.81951 56.9359 6.71041C57.2028 6.5995 57.4709 6.51386 57.7254 6.44807C57.9813 6.37933 58.2074 6.34652 58.3975 6.34652C59.069 6.34652 59.5333 6.4781 59.7935 6.74388C60.0488 7.00671 60.1773 7.4838 60.1773 8.17336V9.31982L54.6353 10.4858V13.2585C54.6353 14.1972 54.9066 14.8979 55.451 15.3596C55.9922 15.8228 56.7348 16.0539 57.6709 16.0539C58.2714 16.0539 58.7954 15.8961 59.24 15.5786C59.689 15.2658 60.0488 14.8728 60.3272 14.4031L60.4378 15.8556H61.8059V8.17336C61.8059 7.02787 61.5454 6.18754 61.0243 5.65171C60.5026 5.11605 59.672 4.84912 58.527 4.84912Z" fill="white"/>
<path fill-rule="evenodd" clip-rule="evenodd" d="M66.4466 6.96274C66.8053 6.58129 67.2933 6.3918 67.9097 6.3918C68.3369 6.3918 68.7358 6.505 69.1107 6.73157C69.4836 6.95798 69.8035 7.25789 70.0668 7.62293L71.1908 6.52321C70.3687 5.40775 69.2762 4.84912 67.9097 4.84912C67.3667 4.84912 66.8724 4.93771 66.4246 5.11326C65.9769 5.28914 65.5917 5.53736 65.2704 5.86188C64.9445 6.18459 64.6962 6.56489 64.5208 7.00687C64.3438 7.44508 64.2551 7.93153 64.2551 8.45784V12.5099C64.2551 13.6404 64.5879 14.5172 65.2572 15.1398C65.9241 15.7652 66.8248 16.0756 67.955 16.0756C68.5407 16.0756 69.1107 15.9665 69.659 15.7447C70.2102 15.5235 70.6924 15.1803 71.1011 14.7091L70.0668 13.5871C69.8174 13.9105 69.507 14.1475 69.1312 14.3024C68.7583 14.4568 68.3807 14.5347 67.9993 14.5347C67.3388 14.5347 66.8248 14.3616 66.4574 14.0184C66.0893 13.6732 65.9067 13.1699 65.9067 12.5099V8.45915C65.9067 7.84359 66.0878 7.34533 66.4466 6.96274Z" fill="white"/>
<path fill-rule="evenodd" clip-rule="evenodd" d="M74.5156 8.45915C74.5156 7.82882 74.7248 7.32482 75.1412 6.95339C75.5625 6.579 76.0788 6.3918 76.6957 6.3918C77.2976 6.3918 77.7416 6.54438 78.0261 6.85249C78.3133 7.16109 78.5012 7.60701 78.5868 8.19616L78.6339 9.14214L74.5156 9.89093V8.45915ZM78.2899 14.3131C77.9037 14.4614 77.4871 14.5347 77.0484 14.5347C76.3009 14.5347 75.6903 14.3318 75.2201 13.9292C74.7514 13.5254 74.5156 12.9499 74.5156 12.2011V11.1202L80.284 10.0875V8.45784C80.284 7.91611 80.1968 7.41867 80.0197 6.9716C79.8426 6.52551 79.5984 6.14243 79.282 5.82726C78.9668 5.5139 78.5868 5.27043 78.1486 5.10145C77.7073 4.93427 77.2253 4.84912 76.6957 4.84912C76.1374 4.84912 75.6257 4.93427 75.152 5.10145C74.6859 5.27043 74.2808 5.5075 73.9409 5.81611C73.6046 6.12536 73.3413 6.5009 73.1493 6.95043C72.9583 7.39816 72.8638 7.90118 72.8638 8.45784V12.2022C72.8638 13.4791 73.2303 14.4438 73.9635 15.0974C74.6999 15.7494 75.7046 16.0756 76.981 16.0756C77.6572 16.0756 78.2764 15.9694 78.8411 15.7576C79.4066 15.5429 79.938 15.1803 80.4386 14.6656L79.5143 13.5003C79.0892 13.8952 78.6808 14.1662 78.2899 14.3131Z" fill="white"/>
<path fill-rule="evenodd" clip-rule="evenodd" d="M90.2781 13.7441L88.471 5.06836H86.8199L85.059 13.787L83.4523 5.06836H81.7357L84.1784 15.8796H85.9395L87.6786 7.71075L89.4202 15.8796H91.136L93.5586 5.06836H91.8613L90.2781 13.7441Z" fill="white"/>
<path fill-rule="evenodd" clip-rule="evenodd" d="M96.5785 8.45915C96.5785 7.82882 96.786 7.32482 97.204 6.95339C97.6245 6.579 98.1415 6.3918 98.7575 6.3918C99.3582 6.3918 99.8018 6.54438 100.088 6.85249C100.374 7.16109 100.562 7.60701 100.648 8.19616L100.693 9.14214L96.5785 9.89093V8.45915ZM100.354 14.3131C99.9644 14.4614 99.5516 14.5347 99.1103 14.5347C98.3615 14.5347 97.7515 14.3318 97.2803 13.9292C96.8124 13.5254 96.5785 12.9499 96.5785 12.2011V11.1202L102.345 10.0875V8.45784C102.345 7.91611 102.256 7.41867 102.082 6.9716C101.907 6.52551 101.659 6.14243 101.342 5.82726C101.027 5.5139 100.648 5.27043 100.21 5.10145C99.7701 4.93427 99.2858 4.84912 98.7575 4.84912C98.1992 4.84912 97.6862 4.93427 97.2165 5.10145C96.747 5.27043 96.3422 5.5075 96.0062 5.81611C95.6674 6.12536 95.4023 6.5009 95.212 6.95043C95.0204 7.39816 94.925 7.90118 94.925 8.45784V12.2022C94.925 13.4791 95.2932 14.4438 96.0271 15.0974C96.7611 15.7494 97.7671 16.0756 99.043 16.0756C99.7176 16.0756 100.339 15.9694 100.904 15.7576C101.469 15.5429 102.002 15.1803 102.499 14.6656L101.575 13.5003C101.149 13.8952 100.743 14.1662 100.354 14.3131Z" fill="white"/>
<mask id="mask0_1_5235" style="mask-type:alpha" maskUnits="userSpaceOnUse" x="104" y="0" width="9" height="17">
<path fill-rule="evenodd" clip-rule="evenodd" d="M104.942 0H112.798V16.0757H104.942V0Z" fill="white"/>
</mask>
<g mask="url(#mask0_1_5235)">
<path fill-rule="evenodd" clip-rule="evenodd" d="M111.124 12.5309C111.124 13.1916 110.928 13.6923 110.532 14.0278C110.135 14.3648 109.609 14.535 108.947 14.535C108.231 14.535 107.666 14.3054 107.256 13.8526C106.846 13.3977 106.64 12.811 106.64 12.0921V8.87709C106.64 8.55553 106.698 8.24381 106.805 7.94341C106.915 7.64187 107.072 7.37773 107.276 7.15017C107.484 6.92245 107.723 6.74412 108.005 6.61188C108.282 6.47817 108.58 6.41304 108.905 6.41304C109.609 6.41304 110.154 6.57923 110.542 6.90834C110.931 7.23745 111.124 7.75622 111.124 8.45939V12.5309ZM111.931 5.76171C111.352 5.15205 110.491 4.84936 109.346 4.84936C108.789 4.84936 108.277 4.98061 107.805 5.24409C107.338 5.50758 106.947 5.86212 106.64 6.30345V0H104.942V15.8558H106.442L106.531 14.576C106.84 15.123 107.229 15.5067 107.708 15.7343C108.183 15.962 108.722 16.0757 109.324 16.0757C110.452 16.0757 111.314 15.772 111.909 15.1617C112.501 14.5519 112.798 13.6771 112.798 12.5334V8.39344C112.798 7.24697 112.511 6.37202 111.931 5.76171Z" fill="white"/>
</g>
<path fill-rule="evenodd" clip-rule="evenodd" d="M14.8366 15.7295C14.4808 15.7295 14.1953 16.0182 14.1953 16.3702C14.1953 16.7245 14.4808 17.0115 14.8366 17.0115C15.189 17.0115 15.476 16.7245 15.476 16.3702C15.476 16.0182 15.189 15.7295 14.8366 15.7295Z" fill="#3DBDF6"/>
<mask id="mask1_1_5235" style="mask-type:alpha" maskUnits="userSpaceOnUse" x="0" y="2" width="30" height="18">
<path fill-rule="evenodd" clip-rule="evenodd" d="M0 2.57568H29.816V19.2426H0V2.57568Z" fill="white"/>
</mask>
<g mask="url(#mask1_1_5235)">
<path fill-rule="evenodd" clip-rule="evenodd" d="M17.9104 14.0543C16.5761 14.0543 15.4967 12.9716 15.4967 11.6368C15.4967 10.3012 16.5761 9.22328 17.9104 9.22328C19.2442 9.22328 20.3251 10.3012 20.3251 11.6368C20.3251 12.9716 19.2442 14.0543 17.9104 14.0543ZM11.7779 14.0543C10.4426 14.0543 9.36141 12.9716 9.36141 11.6368C9.36141 10.3012 10.4426 9.22328 11.7779 9.22328C13.1116 9.22328 14.1911 10.3012 14.1911 11.6368C14.1911 12.9716 13.1116 14.0543 11.7779 14.0543ZM28.0596 6.39189C27.3766 5.31104 26.6152 4.55931 25.9181 3.94621C25.3703 3.47026 24.8604 3.07766 24.3597 2.70327C24.1249 2.52854 23.8004 2.52854 23.5907 2.73264C23.33 2.98562 23.0587 3.2473 22.7515 3.5436C22.3069 3.97738 21.7828 4.48319 21.1401 5.09333C20.6161 5.58979 20.0138 6.15892 19.3971 6.73822C19.1809 6.94347 18.8698 7.0004 18.5765 6.94757C18.3074 6.89769 18.0323 6.87259 17.7504 6.87259C16.8113 6.87259 15.9411 7.15593 15.2158 7.64188C14.9832 7.7979 14.6751 7.7979 14.4428 7.64188C13.7184 7.15593 12.8479 6.87259 11.9095 6.87259C11.6786 6.87259 11.4549 6.89129 11.2332 6.92591C10.9354 6.97119 10.6124 6.92115 10.3927 6.71181C9.7842 6.14022 9.19145 5.58273 8.67514 5.09333C8.03251 4.48319 7.51161 3.97738 7.06388 3.5436C6.75659 3.2473 6.48589 2.98562 6.2247 2.73264C6.01733 2.52854 5.69117 2.52854 5.45623 2.70327C4.95486 3.07766 4.44561 3.47026 3.89895 3.94621C3.19857 4.55931 2.43896 5.31104 1.75712 6.39189C1.07462 7.47158 0.470211 8.87875 0.190977 10.273C-0.0898984 11.6678 -0.0442891 13.0515 0.219031 14.2462C0.482844 15.4432 0.963219 16.4566 1.51234 17.4172C2.05817 18.3796 2.67423 19.2874 2.75609 19.2409C2.83501 19.1922 2.38597 18.1849 2.027 17.1959C1.66967 16.2086 1.40619 15.2362 1.28445 14.2931C1.16124 13.3526 1.18323 12.4401 1.42965 11.3909C1.67607 10.3417 2.15169 9.1611 2.68456 8.25925C3.21563 7.35608 3.80396 6.73412 4.34487 6.22815C4.7488 5.84917 5.12893 5.53762 5.50234 5.24247C5.71627 5.07102 6.02488 5.1163 6.21207 5.31925L6.26834 5.38143L8.44906 7.74918C8.64019 7.95458 8.61723 8.27204 8.43479 8.48451C8.25941 8.69451 8.10043 8.91632 7.96393 9.15339C7.82989 9.3839 7.53786 9.47676 7.30735 9.34354L5.83768 8.48204C5.5865 8.33422 5.26297 8.3695 5.06248 8.58229C4.84248 8.82018 4.61853 9.08711 4.38868 9.44985C4.03447 9.99765 3.66418 10.7678 3.44565 11.7049C3.22974 12.6425 3.17281 13.7509 3.3016 14.7591C3.43105 15.7695 3.75228 16.6855 4.12651 17.5311C4.50238 18.3796 4.93599 19.1587 5.01491 19.1587C5.09366 19.1587 4.81524 18.3796 4.58982 17.5821C4.36686 16.7852 4.19525 15.9731 4.1398 15.1879C4.08763 14.4034 4.14833 13.6472 4.28499 13.0016C4.41821 12.3556 4.6228 11.827 4.82541 11.426C4.92385 11.226 5.0236 11.0565 5.12089 10.9033C5.27314 10.6715 5.5906 10.6163 5.81274 10.7853L6.98989 11.6785C7.2478 11.875 7.40382 12.1736 7.48044 12.4863C7.49274 12.54 7.50685 12.5926 7.52096 12.6425C7.57691 12.8579 7.39759 13.0592 7.18234 13.0197L6.7712 12.9511C6.49459 12.9053 6.21847 13.0697 6.14661 13.3408C6.06392 13.6423 5.99534 13.9547 5.96319 14.2815C5.91282 14.7814 5.95236 15.33 6.04522 15.8681C6.13873 16.4081 6.28869 16.9401 6.57088 17.6156C6.85487 18.2922 7.27536 19.1161 7.35723 19.1425C7.43729 19.1689 7.1761 18.4001 7.01762 17.7483C6.85487 17.0963 6.79712 16.5593 6.77825 16.1282C6.75906 15.699 6.78005 15.3753 6.82058 15.0918C6.83469 14.9856 6.85257 14.8841 6.87193 14.7848C6.92656 14.5255 7.20432 14.3858 7.45829 14.4615L8.49418 14.7696C8.80623 14.8629 9.09087 15.0231 9.36141 15.2057C10.0884 15.699 10.9659 15.9872 11.9095 15.9872C12.8479 15.9872 13.7184 15.7033 14.4428 15.2162C14.6751 15.0595 14.9832 15.0595 15.2158 15.2162C15.9411 15.7033 16.8113 15.9872 17.7504 15.9872C18.66 15.9872 19.5039 15.7202 20.2164 15.2603C20.4842 15.0852 20.768 14.9333 21.0748 14.8437L22.3553 14.4615C22.6134 14.3858 22.8903 14.5255 22.9433 14.7848C22.9622 14.8841 22.9801 14.9856 22.997 15.0918C23.0383 15.3753 23.0587 15.699 23.0383 16.1282C23.0181 16.5593 22.9566 17.0963 22.7981 17.7483C22.6392 18.4001 22.3794 19.1689 22.459 19.1425C22.5394 19.1161 22.9604 18.2922 23.2429 17.6156C23.5284 16.9401 23.6757 16.4081 23.7692 15.8681C23.8614 15.33 23.9011 14.7814 23.8535 14.2815C23.8201 13.9547 23.752 13.6423 23.6719 13.3408C23.5971 13.0697 23.3215 12.9053 23.0431 12.9511L22.4694 13.0515C22.2436 13.0878 22.0807 12.8579 22.143 12.6366C22.2267 12.3168 22.3847 12.0123 22.6485 11.8128L24.0025 10.7853C24.2224 10.6163 24.5439 10.6715 24.6935 10.9033C24.7933 11.0565 24.8901 11.226 24.9898 11.426C25.191 11.827 25.3956 12.3556 25.5312 13.0016C25.6646 13.6472 25.7293 14.4034 25.6761 15.1879C25.6233 15.9731 25.4502 16.7852 25.2254 17.5821C25.0007 18.3796 24.7231 19.1587 24.7997 19.1587C24.8775 19.1587 25.3111 18.3796 25.6878 17.5311C26.0646 16.6855 26.3844 15.7695 26.5155 14.7591C26.6439 13.7509 26.5842 12.6425 26.3688 11.7049C26.1534 10.7678 25.7808 9.99765 25.4272 9.44985C25.1972 9.08711 24.972 8.82018 24.752 8.58229C24.5533 8.3695 24.2288 8.33422 23.9758 8.48204L22.3832 9.41343C22.1542 9.54944 21.8622 9.44558 21.7322 9.21097C21.602 8.97686 21.449 8.75554 21.2789 8.54783C21.1073 8.33422 21.1104 8.02677 21.2963 7.82547L23.5469 5.38143L23.6047 5.31925C23.7919 5.1163 24.0985 5.07102 24.3144 5.24247C24.6855 5.53762 25.0655 5.84917 25.4704 6.22815C26.0118 6.73412 26.5996 7.35608 27.1302 8.25925C27.6619 9.1611 28.1377 10.3417 28.3851 11.3909C28.6343 12.4401 28.6524 13.3526 28.5308 14.2931C28.4091 15.2362 28.1456 16.2086 27.7883 17.1959C27.4295 18.1849 26.9788 19.1922 27.0592 19.2409C27.141 19.2874 27.7553 18.3796 28.3046 17.4172C28.852 16.4566 29.3342 15.4432 29.5985 14.2462C29.8599 13.0515 29.9056 11.6678 29.6258 10.273C29.3465 8.87875 28.7429 7.47158 28.0596 6.39189Z" fill="#3DBDF6"/>
</g>
<path fill-rule="evenodd" clip-rule="evenodd" d="M12.8404 11.1021C12.4871 11.1021 12.2012 11.3908 12.2012 11.744C12.2012 12.0977 12.4871 12.3853 12.8404 12.3853C13.1962 12.3853 13.4832 12.0977 13.4832 11.744C13.4832 11.3908 13.1962 11.1021 12.8404 11.1021Z" fill="#3DBDF6"/>
<path fill-rule="evenodd" clip-rule="evenodd" d="M18.976 11.1021C18.6213 11.1021 18.334 11.3908 18.334 11.744C18.334 12.0977 18.6213 12.3853 18.976 12.3853C19.331 12.3853 19.6171 12.0977 19.6171 11.744C19.6171 11.3908 19.331 11.1021 18.976 11.1021Z" fill="#3DBDF6"/>
</svg>
