<svg width="92" height="24" viewBox="0 0 92 24" fill="none" xmlns="http://www.w3.org/2000/svg">
<path d="M15.3823 12.0604C15.3915 11.1918 15.6212 10.3397 16.0497 9.58412C16.4782 8.82852 17.0916 8.19411 17.8323 7.74036C17.362 7.0696 16.7424 6.51722 16.0222 6.12677C15.302 5.73632 14.501 5.51846 13.6823 5.49036C11.9323 5.31036 10.2423 6.49036 9.35231 6.49036C8.46231 6.49036 7.07231 5.49036 5.60231 5.49036C4.64777 5.52104 3.71752 5.79885 2.90248 6.29664C2.08744 6.79443 1.41549 7.49517 0.952307 8.33036C-1.04769 11.8104 0.432307 16.9304 2.36231 19.7404C3.36231 21.1204 4.45231 22.6604 5.93231 22.6104C7.41231 22.5604 7.93231 21.6904 9.65231 21.6904C11.3723 21.6904 11.8823 22.6104 13.3823 22.5704C14.8823 22.5304 15.9123 21.1904 16.8423 19.8004C17.5365 18.8191 18.0668 17.7316 18.4123 16.5804C17.5226 16.1921 16.7652 15.5532 16.2324 14.7417C15.6997 13.9301 15.4147 12.9811 15.4123 12.0104L15.3823 12.0604Z" fill="black"/>
<path d="M12.5431 3.64C13.384 2.62127 13.7995 1.31743 13.7031 0C12.4117 0.135882 11.2191 0.75363 10.3631 1.73C9.52275 2.69546 9.09539 3.95242 9.17307 5.23C9.81912 5.23496 10.4579 5.09358 11.0416 4.81649C11.6252 4.53939 12.1385 4.13376 12.5431 3.63V3.64Z" fill="black"/>
<path d="M28.1974 16.7251H31.5004L29.8709 11.9246H29.8181L28.1886 16.7251H28.1974ZM31.932 18.0903H27.7658L26.7616 21.0411H25L28.9373 10.1013H30.7694L34.7242 21.0411H32.9626L31.932 18.0903Z" fill="black"/>
<path d="M41.5763 17.0599C41.5763 15.4392 40.6955 14.4175 39.4712 14.4175C38.2468 14.4175 37.3748 15.5009 37.3748 17.0599C37.3748 18.619 38.2556 19.7024 39.4712 19.7024C40.6867 19.7024 41.5763 18.6542 41.5763 17.0599ZM43.2587 17.0599C43.2587 19.535 41.9286 21.1293 39.9292 21.1293C39.4216 21.1544 38.9171 21.0365 38.4733 20.7888C38.0294 20.5412 37.6641 20.1739 37.4189 19.7288V23.6837H35.7453V13.1138H37.3308V14.4351C37.5861 13.9922 37.957 13.6271 38.4038 13.3789C38.8507 13.1306 39.3566 13.0086 39.8675 13.0258C41.8934 13.0258 43.2234 14.6289 43.2234 17.104L43.2587 17.0599Z" fill="black"/>
<path d="M50.3569 17.0596C50.3569 15.4389 49.5202 14.4171 48.243 14.4171C46.9658 14.4171 46.1554 15.5005 46.1554 17.0596C46.1554 18.6186 47.0363 19.702 48.243 19.702C49.4497 19.702 50.3569 18.6539 50.3569 17.0596ZM52.0393 17.0596C52.0393 19.5347 50.7093 21.129 48.7098 21.129C48.202 21.1551 47.6972 21.0376 47.2531 20.7899C46.8091 20.5422 46.4439 20.1743 46.1995 19.7285V23.6833H44.5259V13.1135H46.1114V14.4347C46.3682 13.9932 46.7394 13.6291 47.1859 13.3811C47.6324 13.133 48.1376 13.0102 48.6482 13.0254C50.674 13.0254 52.0129 14.6285 52.0129 17.1036L52.0393 17.0596Z" fill="black"/>
<path d="M57.8359 17.9932C57.9592 19.0766 59.0162 19.7548 60.4784 19.7548C61.9405 19.7548 62.8478 19.0414 62.8478 18.0637C62.8478 17.086 62.2488 16.7072 60.8307 16.3637L59.3861 16.0554C57.3779 15.571 56.453 14.6285 56.453 13.1047C56.453 11.2197 58.0913 9.92493 60.4255 9.92493C62.7597 9.92493 64.3275 11.2197 64.3804 13.1047H62.7244C62.6275 12.0125 61.7291 11.343 60.4079 11.343C59.0867 11.343 58.1882 12.0125 58.1882 12.9814C58.1882 13.7565 58.7608 14.2145 60.1701 14.558L61.3768 14.8575C63.6229 15.386 64.5565 16.2932 64.5565 17.8875C64.5565 19.931 62.927 21.217 60.3286 21.217C57.9064 21.217 56.2681 19.9662 56.1624 17.9844L57.8359 17.9932Z" fill="black"/>
<path d="M68.09 11.1842V13.0692H69.605V14.364H68.09V18.768C68.09 19.4551 68.3894 19.7722 69.0589 19.7722C69.2262 19.7722 69.4905 19.7722 69.5962 19.7722V21.0582C69.3054 21.1092 69.0105 21.1328 68.7153 21.1286C67.1034 21.1286 66.4693 20.5297 66.4693 18.9794V14.408H65.2802V13.1132H66.4428V11.2282L68.09 11.1842Z" fill="black"/>
<path d="M76.3786 17.0595C76.3786 15.2979 75.5947 14.3202 74.2647 14.3202C72.9346 14.3202 72.1507 15.3419 72.1507 17.0595C72.1507 18.7771 72.9346 19.7901 74.2647 19.7901C75.5947 19.7901 76.3786 18.7859 76.3786 17.0595ZM70.486 17.0595C70.486 14.5492 71.9569 12.9725 74.2647 12.9725C76.5724 12.9725 78.0434 14.5492 78.0434 17.0595C78.0434 19.5699 76.5812 21.1465 74.2647 21.1465C71.9481 21.1465 70.486 19.5787 70.486 17.0595Z" fill="black"/>
<path d="M79.3973 13.0695H80.9564V14.4259C81.0629 14.0018 81.3117 13.6271 81.6611 13.3642C82.0105 13.1013 82.4395 12.9662 82.8766 12.9814C83.0661 12.9827 83.255 13.0034 83.4403 13.043V14.5757C83.2003 14.5045 82.9506 14.4718 82.7004 14.4788C82.4632 14.4696 82.2269 14.5119 82.0075 14.6026C81.7882 14.6933 81.591 14.8303 81.4296 15.0043C81.2681 15.1783 81.1462 15.3852 81.0721 15.6107C80.9981 15.8362 80.9736 16.075 81.0004 16.3109V21.0409H79.3973V13.1135V13.0695Z" fill="black"/>
<path d="M85.4849 16.3196H89.475C89.4896 16.0557 89.4495 15.7917 89.3573 15.5439C89.2652 15.2962 89.1229 15.0702 88.9393 14.88C88.7557 14.6899 88.5349 14.5396 88.2906 14.4387C88.0463 14.3379 87.7838 14.2885 87.5195 14.2938C87.2528 14.2926 86.9884 14.3441 86.7416 14.4454C86.4948 14.5467 86.2704 14.6958 86.0813 14.884C85.8923 15.0722 85.7423 15.296 85.6399 15.5423C85.5375 15.7887 85.4848 16.0529 85.4849 16.3196ZM91.0164 18.6978C90.7962 20.1512 89.3869 21.1465 87.59 21.1465C85.2646 21.1465 83.8289 19.5875 83.8289 17.0948C83.8289 14.602 85.2735 12.9725 87.5195 12.9725C89.7656 12.9725 91.1133 14.4875 91.1133 16.901V17.4647H85.476V17.5616C85.451 17.8554 85.4885 18.1513 85.5861 18.4296C85.6836 18.7079 85.8391 18.9624 86.0421 19.1762C86.2452 19.3901 86.4913 19.5585 86.7641 19.6704C87.037 19.7823 87.3305 19.8351 87.6252 19.8253C88.0137 19.8682 88.4054 19.7807 88.7386 19.5766C89.0719 19.3725 89.3278 19.0633 89.4661 18.6978H91.0164Z" fill="black"/>
<path d="M27.0329 4.09338H27.7375C27.8617 4.1084 27.9877 4.09678 28.1071 4.05929C28.2265 4.0218 28.3365 3.95931 28.4299 3.87597C28.5232 3.79263 28.5977 3.69036 28.6485 3.57597C28.6992 3.46158 28.7249 3.33769 28.724 3.21257C28.724 2.72812 28.3629 2.41102 27.7463 2.41102C27.6217 2.39378 27.495 2.40164 27.3735 2.43415C27.252 2.46666 27.1382 2.52316 27.0389 2.60032C26.9396 2.67748 26.8567 2.77374 26.7951 2.88343C26.7336 2.99311 26.6946 3.11401 26.6805 3.23899H25.9142C25.9257 3.0131 25.9838 2.79201 26.0849 2.58967C26.186 2.38734 26.3279 2.20812 26.5016 2.06332C26.6754 1.91852 26.8772 1.81127 27.0945 1.74832C27.3118 1.68537 27.5397 1.66809 27.7639 1.69756C28.8033 1.69756 29.5256 2.2789 29.5256 3.11568C29.5261 3.3949 29.4312 3.66592 29.2566 3.8838C29.082 4.10168 28.8381 4.25332 28.5655 4.31359V4.37525C28.7263 4.38204 28.8842 4.42048 29.0302 4.48837C29.1761 4.55626 29.3073 4.65227 29.4161 4.7709C29.5249 4.88953 29.6093 5.02845 29.6643 5.17971C29.7194 5.33098 29.7441 5.49161 29.737 5.65243C29.7162 5.88664 29.6487 6.11431 29.5385 6.32203C29.4283 6.52975 29.2777 6.71331 29.0954 6.86189C28.9132 7.01047 28.7031 7.12107 28.4774 7.18716C28.2518 7.25325 28.0152 7.2735 27.7816 7.24671C26.6365 7.24671 25.8526 6.63014 25.8085 5.68766H26.5925C26.5925 6.18973 27.1033 6.51563 27.7816 6.51563C28.4598 6.51563 28.909 6.1545 28.909 5.63481C28.909 5.11513 28.4862 4.754 27.7551 4.754H27.0329V4.04054V4.09338Z" fill="black"/>
<path d="M33.1902 5.67017V5.33546L32.2213 5.39712C31.6752 5.39712 31.4198 5.61732 31.4198 5.96964C31.4198 6.32197 31.7369 6.53337 32.1597 6.53337C32.2856 6.54542 32.4127 6.53201 32.5333 6.49391C32.654 6.45581 32.7657 6.39382 32.8619 6.31163C32.958 6.22943 33.0367 6.12872 33.0931 6.01549C33.1495 5.90225 33.1825 5.77882 33.1902 5.65255V5.67017ZM30.6359 6.00488C30.6359 5.29142 31.1732 4.87743 32.1156 4.82458L33.1902 4.76293V4.41941C33.1902 3.99662 32.9084 3.7588 32.3711 3.7588C31.8338 3.7588 31.6312 3.92615 31.5431 4.1992H30.7856C30.8737 3.52098 31.5079 3.08057 32.4151 3.08057C33.3224 3.08057 33.9654 3.58263 33.9654 4.41941V7.12352H33.2078V6.5686H33.1462C33.0213 6.76901 32.8454 6.93257 32.6364 7.04247C32.4274 7.15238 32.193 7.20467 31.9571 7.19398C31.7905 7.21122 31.6221 7.19333 31.4628 7.14146C31.3035 7.08959 31.1569 7.00489 31.0324 6.89284C30.9079 6.78078 30.8083 6.64385 30.74 6.49091C30.6717 6.33796 30.6362 6.17239 30.6359 6.00488Z" fill="black"/>
<path d="M36.0441 3.82099V7.13287H35.2601V3.16919H37.8762V3.82099H36.0441Z" fill="black"/>
<path d="M41.8121 5.14166C41.8121 4.26084 41.4157 3.80282 40.7463 3.80282C40.0769 3.80282 39.6805 4.31369 39.6805 5.14166C39.6805 5.96963 40.0945 6.48931 40.7463 6.48931C41.3981 6.48931 41.8121 5.98725 41.8121 5.14166ZM42.6136 5.14166C42.6136 6.40123 41.9794 7.19396 40.9753 7.19396C40.7297 7.21141 40.4843 7.1575 40.2687 7.03874C40.053 6.91997 39.8763 6.74141 39.7598 6.52454H39.6893V8.44473H38.9142V3.15982H39.6629V3.82044H39.7245C39.844 3.59651 40.0234 3.41031 40.2428 3.28272C40.4622 3.15514 40.7128 3.09123 40.9665 3.09817C41.9794 3.09817 42.6136 3.88209 42.6136 5.14166Z" fill="black"/>
<path d="M43.6561 8.55067V7.87244H43.9116C44.0794 7.88608 44.2462 7.83683 44.3797 7.73427C44.5132 7.63171 44.6038 7.48317 44.6338 7.31753L44.6955 7.12375L43.2598 3.14246H44.1406L45.1359 6.29578H45.1976L46.1929 3.14246H47.0209L45.5411 7.27349C45.2064 8.24238 44.8276 8.55067 44.0173 8.55067H43.6914H43.6561Z" fill="black"/>
<path d="M47.5924 6.00514H48.3764C48.4468 6.34866 48.7815 6.53363 49.2572 6.53363C49.7328 6.53363 50.138 6.30462 50.138 5.94348C50.138 5.58235 49.8561 5.37976 49.2572 5.37976H48.6582V4.772H49.1955C49.6623 4.772 49.909 4.59583 49.909 4.26112C49.909 3.92641 49.7064 3.72382 49.1955 3.72382C48.6846 3.72382 48.4292 3.9088 48.3852 4.21708H47.6277C47.6903 3.8612 47.889 3.54364 48.1816 3.33159C48.4742 3.11953 48.8378 3.02961 49.1955 3.08083C50.138 3.08083 50.6753 3.51243 50.6753 4.18185C50.6786 4.36786 50.6184 4.54945 50.5047 4.69673C50.3911 4.84402 50.2307 4.94822 50.0499 4.9922V5.05386C50.2647 5.07982 50.4625 5.18396 50.6055 5.34642C50.7484 5.50888 50.8266 5.71828 50.825 5.93467C50.825 6.69218 50.182 7.19424 49.2043 7.19424C48.2266 7.19424 47.6277 6.79788 47.5572 5.99633L47.5924 6.00514Z" fill="black"/>
<path d="M51.9888 7.13287V3.16919H52.7639V5.89091H52.8255L54.6488 3.16919H55.4328V7.13287H54.6488V4.38472H54.596L52.7639 7.13287H51.9888Z" fill="black"/>
<path d="M59.7024 3.82099H58.4516V7.13287H57.6677V3.82099H56.4169V3.16919H59.7024V3.82099Z" fill="black"/>
<path d="M61.164 4.78119H63.1635C63.1772 4.64572 63.162 4.50886 63.1189 4.37971C63.0757 4.25055 63.0056 4.13206 62.9131 4.0321C62.8206 3.93213 62.708 3.85298 62.5825 3.7999C62.4571 3.74681 62.3219 3.72101 62.1857 3.72421C62.0505 3.72302 61.9164 3.74892 61.7913 3.8004C61.6662 3.85188 61.5527 3.92788 61.4575 4.02393C61.3622 4.11999 61.2872 4.23414 61.2368 4.35966C61.1864 4.48518 61.1616 4.61953 61.164 4.75477V4.78119ZM63.9121 6.05838C63.8153 6.42917 63.5887 6.75297 63.2736 6.97112C62.9585 7.18926 62.5757 7.2873 62.1946 7.24748C61.9316 7.26146 61.6689 7.21633 61.4257 7.11541C61.1826 7.01449 60.9651 6.86034 60.7893 6.6643C60.6136 6.46826 60.484 6.23532 60.4101 5.9826C60.3362 5.72989 60.32 5.46382 60.3625 5.20398C60.3286 4.94379 60.3507 4.67935 60.4273 4.4284C60.504 4.17746 60.6334 3.94579 60.8069 3.74894C60.9804 3.55209 61.1939 3.39461 61.4333 3.28704C61.6726 3.17947 61.9322 3.12431 62.1946 3.12526C63.2956 3.12526 63.9562 3.88276 63.9562 5.12471V5.39777H61.164C61.1517 5.54338 61.17 5.68996 61.2177 5.82808C61.2654 5.96621 61.3415 6.09284 61.441 6.19984C61.5405 6.30683 61.6613 6.39183 61.7957 6.44938C61.93 6.50693 62.0749 6.53576 62.221 6.53402C62.4074 6.5555 62.596 6.52189 62.7635 6.43736C62.931 6.35283 63.07 6.22108 63.1635 6.05838H63.9121Z" fill="black"/>
<path d="M68.0096 5.36256V6.52524H68.9433C69.4013 6.52524 69.6479 6.32266 69.6479 5.9439C69.6479 5.56515 69.3661 5.36256 68.8464 5.36256H68.0096ZM68.0096 3.75948V4.79003H68.7847C69.2604 4.79003 69.4894 4.60506 69.4894 4.27035C69.4894 3.93564 69.2868 3.75948 68.8728 3.75948H68.0096ZM67.2345 3.16052H68.9961C69.7712 3.16052 70.2293 3.55689 70.2293 4.17346C70.2351 4.37467 70.1719 4.57182 70.0501 4.73208C69.9283 4.89234 69.7553 5.00605 69.5599 5.05428V5.11594C69.7935 5.11594 70.0175 5.20874 70.1827 5.37392C70.3479 5.53911 70.4407 5.76315 70.4407 5.99675C70.4407 6.68379 69.921 7.13301 69.049 7.13301H67.2873V3.16933L67.2345 3.16052Z" fill="black"/>
</svg>
