<svg width="100" height="24" viewBox="0 0 100 24" fill="none" xmlns="http://www.w3.org/2000/svg">
<path d="M27.1875 2.8632C27.2285 3.57155 27.054 4.27569 26.687 4.88293H29.3214V0.90494H27.1875V2.8632ZM25.9757 6.648H25.3259V4.89171H25.844C26.0962 4.6244 26.2867 4.30498 26.4021 3.95599C26.5174 3.60701 26.5547 3.23696 26.5114 2.87198V0.237549H30.0239V4.85659H30.6123V6.61288H29.9625V5.49763H25.9669V6.61288L25.9757 6.648Z" fill="#010100"/>
<path d="M27.1893 2.86341H27.1015V2.94244C27.1347 3.60609 26.9663 4.26425 26.6185 4.83045L26.5307 4.97095H29.4461V0.817329H27.1015V2.86341H27.2771V0.992959H29.2705V4.79532H26.6888V4.88314L26.7678 4.93583C27.1327 4.33709 27.3101 3.64284 27.2771 2.94244V2.86341H27.1893ZM25.9775 6.6482V6.56039H25.433V4.97095H25.8984C26.1566 4.70471 26.3534 4.3851 26.4747 4.03463C26.5961 3.68416 26.6392 3.31135 26.6009 2.94244V2.88097V0.369477H29.9467V4.98851H30.535V6.57796H30.0608V5.46271H25.8896V6.66577H25.9775H26.0653V5.63834H29.8237V6.75358H30.6492V4.81288H30.0608V0.193848H26.3638V2.88097V2.94244C26.4005 3.28481 26.3621 3.63106 26.2514 3.9571C26.1407 4.28315 25.9603 4.58117 25.7228 4.83045L25.7843 4.9007V4.81288H25.1783V6.75358H26.0038V6.66577L25.9775 6.6482Z" fill="#010100"/>
<path d="M32.5103 4.40873C32.6955 4.60017 32.9182 4.75125 33.1645 4.8525C33.4109 4.95375 33.6755 5.00298 33.9417 4.99709C34.208 5.00298 34.4726 4.95375 34.7189 4.8525C34.9652 4.75125 35.1879 4.60017 35.3731 4.40873C35.5668 4.20884 35.7186 3.97226 35.8197 3.71289C35.9207 3.45352 35.9689 3.17658 35.9614 2.89833C35.9701 2.61861 35.9225 2.34001 35.8214 2.07905C35.7203 1.81808 35.5679 1.58007 35.3731 1.37914C35.1879 1.1877 34.9652 1.03662 34.7189 0.935372C34.4726 0.834123 34.208 0.784896 33.9417 0.790783C33.6755 0.784896 33.4109 0.834123 33.1645 0.935372C32.9182 1.03662 32.6955 1.1877 32.5103 1.37914C32.3156 1.58007 32.1631 1.81808 32.062 2.07905C31.961 2.34001 31.9133 2.61861 31.922 2.89833C31.9145 3.17658 31.9627 3.45352 32.0638 3.71289C32.1648 3.97226 32.3166 4.20884 32.5103 4.40873ZM35.8736 4.84781C35.6255 5.10879 35.3253 5.31477 34.9925 5.45243C34.6597 5.59008 34.3017 5.65634 33.9417 5.64692C33.5817 5.65634 33.2237 5.59008 32.8909 5.45243C32.5581 5.31477 32.258 5.10879 32.0098 4.84781C31.7565 4.59155 31.5575 4.28681 31.4247 3.95184C31.2919 3.61687 31.2281 3.25855 31.237 2.89833C31.2284 2.53683 31.2923 2.17728 31.4251 1.84092C31.5578 1.50457 31.7566 1.19825 32.0098 0.940065C32.2602 0.682081 32.5608 0.478094 32.8931 0.340663C33.2253 0.203232 33.5822 0.135268 33.9417 0.140955C34.3019 0.136402 34.6591 0.205747 34.9914 0.344703C35.3237 0.483659 35.6239 0.689276 35.8736 0.948849C36.127 1.2051 36.326 1.50984 36.4587 1.84481C36.5915 2.17979 36.6553 2.53811 36.6464 2.89833C36.6553 3.25855 36.5915 3.61687 36.4587 3.95184C36.326 4.28681 36.127 4.59155 35.8736 4.84781Z" fill="#010100"/>
<path d="M32.5089 4.40854L32.4562 4.50513C32.6491 4.70517 32.8813 4.86307 33.1383 4.96887C33.3952 5.07467 33.6713 5.12607 33.9491 5.11983C34.2269 5.12607 34.503 5.07467 34.7599 4.96887C35.0168 4.86307 35.2491 4.70517 35.4419 4.50513C35.6442 4.2975 35.8029 4.05142 35.9084 3.78144C36.014 3.51145 36.0644 3.22304 36.0566 2.93325C36.0646 2.64212 36.0143 2.35234 35.9088 2.0809C35.8032 1.80946 35.6445 1.56185 35.4419 1.3526C35.2481 1.15382 35.0157 0.996765 34.759 0.891059C34.5023 0.785353 34.2267 0.733232 33.9491 0.737894C33.6715 0.733232 33.3959 0.785353 33.1392 0.891059C32.8825 0.996765 32.6501 1.15382 32.4562 1.3526C32.2537 1.56185 32.095 1.80946 31.9894 2.0809C31.8838 2.35234 31.8336 2.64212 31.8415 2.93325C31.8338 3.22304 31.8841 3.51145 31.9897 3.78144C32.0953 4.05142 32.2539 4.2975 32.4562 4.50513L32.5177 4.44366L32.5792 4.38219C32.3949 4.18947 32.2503 3.9623 32.1539 3.71368C32.0575 3.46505 32.011 3.19985 32.0172 2.93325C32.0053 2.3923 32.2072 1.8685 32.5792 1.47553C32.7563 1.29228 32.9695 1.14773 33.2052 1.051C33.441 0.954266 33.6943 0.907457 33.9491 0.913523C34.2039 0.907457 34.4571 0.954266 34.6929 1.051C34.9287 1.14773 35.1419 1.29228 35.319 1.47553C35.5052 1.66873 35.6508 1.89724 35.7473 2.14759C35.8439 2.39794 35.8893 2.66507 35.881 2.93325C35.8891 3.2001 35.8436 3.46585 35.747 3.71475C35.6505 3.96365 35.5049 4.19062 35.319 4.38219C35.1419 4.56545 34.9287 4.71 34.6929 4.80673C34.4571 4.90346 34.2039 4.95027 33.9491 4.9442C33.6943 4.95027 33.441 4.90346 33.2052 4.80673C32.9695 4.71 32.7563 4.56545 32.5792 4.38219L32.5177 4.44366L32.5089 4.40854ZM35.8722 4.84761L35.8107 4.78614C35.5703 5.03851 35.2796 5.23767 34.9574 5.37078C34.6353 5.50388 34.2888 5.56797 33.9403 5.55891C33.5919 5.56743 33.2456 5.50309 32.9235 5.37002C32.6014 5.23695 32.3106 5.03807 32.0699 4.78614C31.8267 4.53645 31.6356 4.24101 31.5075 3.91692C31.3793 3.59284 31.3168 3.24656 31.3234 2.89813C31.3156 2.54823 31.3776 2.20029 31.5058 1.87462C31.6339 1.54894 31.8257 1.25207 32.0699 1.00134C32.3106 0.749399 32.6014 0.550527 32.9235 0.417457C33.2456 0.284386 33.5919 0.220052 33.9403 0.228572C34.2893 0.22172 34.6358 0.287681 34.9579 0.422247C35.2799 0.556813 35.5704 0.757027 35.8107 1.01012C36.0539 1.25981 36.245 1.55525 36.3731 1.87933C36.5013 2.20342 36.5638 2.5497 36.5572 2.89813C36.5638 3.24656 36.5013 3.59284 36.3731 3.91692C36.245 4.24101 36.0539 4.53645 35.8107 4.78614L35.8722 4.84761L35.9337 4.90908C36.1969 4.64601 36.4035 4.33193 36.5409 3.98613C36.6783 3.64032 36.7436 3.27008 36.7328 2.89813C36.7436 2.52618 36.6783 2.15594 36.5409 1.81013C36.4035 1.46433 36.1969 1.15025 35.9337 0.88718C35.6833 0.607135 35.3758 0.383892 35.032 0.232434C34.6882 0.0809766 34.316 0.00480775 33.9403 0.00903579C33.5691 0.00195162 33.2004 0.0716128 32.8574 0.213655C32.5144 0.355697 32.2044 0.567057 31.9469 0.83449C31.6856 1.1007 31.4802 1.41658 31.3429 1.76347C31.2057 2.11037 31.1393 2.48125 31.1478 2.85422C31.139 3.22591 31.2053 3.59556 31.3426 3.94108C31.4799 4.2866 31.6854 4.60089 31.9469 4.86517C32.2021 5.13566 32.5117 5.34905 32.8552 5.49132C33.1988 5.63359 33.5686 5.70152 33.9403 5.69063C34.312 5.70152 34.6818 5.63359 35.0254 5.49132C35.3689 5.34905 35.6785 5.13566 35.9337 4.86517L35.8722 4.8037V4.84761Z" fill="#010100"/>
<path d="M40.0626 5.64683C39.6994 5.65729 39.3378 5.59247 39.0008 5.45646C38.6638 5.32045 38.3586 5.11618 38.1044 4.8565C37.8463 4.6015 37.6436 4.29594 37.5091 3.95896C37.3747 3.62199 37.3112 3.26087 37.3228 2.89823C37.3131 2.53453 37.3774 2.17264 37.5118 1.83452C37.6461 1.4964 37.8477 1.18908 38.1044 0.931193C38.3586 0.671511 38.6638 0.46724 39.0008 0.331228C39.3378 0.195215 39.6994 0.130401 40.0626 0.140862C40.4299 0.133044 40.7942 0.207908 41.1286 0.359912C41.463 0.511916 41.759 0.73717 41.9945 1.01901L41.5203 1.47564C41.3478 1.25669 41.1256 1.08196 40.8721 0.965908C40.6186 0.849856 40.3411 0.795816 40.0626 0.808253C39.7931 0.801755 39.5251 0.849738 39.2746 0.949329C39.0242 1.04892 38.7964 1.19807 38.6049 1.38783C38.4065 1.58797 38.2517 1.8271 38.1505 2.0901C38.0492 2.35311 38.0036 2.63427 38.0166 2.9158C38.0067 3.19302 38.0539 3.46932 38.1551 3.7276C38.2563 3.98588 38.4094 4.22066 38.6049 4.41743C38.7964 4.60719 39.0242 4.75633 39.2746 4.85592C39.5251 4.95551 39.7931 5.0035 40.0626 4.997C40.3719 4.99829 40.6775 4.93034 40.9571 4.79814C41.2367 4.66595 41.4832 4.47285 41.6784 4.23301L42.1526 4.70721C41.9138 4.99731 41.614 5.23118 41.2745 5.39216C40.9056 5.56214 40.5039 5.64908 40.0978 5.64683H40.0626Z" fill="#010100"/>
<path d="M40.0609 5.64732V5.55951C39.7105 5.56946 39.3618 5.50671 39.0369 5.37522C38.712 5.24373 38.4178 5.04635 38.1729 4.79552C37.9223 4.54868 37.7251 4.25289 37.5936 3.92658C37.4622 3.60026 37.3993 3.25039 37.4089 2.89873C37.3992 2.54574 37.4619 2.1945 37.5933 1.86674C37.7248 1.53898 37.922 1.24165 38.1729 0.993158C38.4178 0.742327 38.712 0.544945 39.0369 0.413455C39.3618 0.281966 39.7105 0.219221 40.0609 0.229173C40.4142 0.217705 40.7655 0.286869 41.088 0.431417C41.4106 0.575965 41.696 0.792098 41.9226 1.06341L41.9928 1.00194L41.9314 0.940468L41.4572 1.3971L41.5186 1.45857L41.5889 1.40589C41.4067 1.17764 41.1736 0.995211 40.9083 0.873219C40.643 0.751228 40.3528 0.693057 40.0609 0.703368C39.78 0.69704 39.5006 0.747439 39.2396 0.851549C38.9786 0.955659 38.7412 1.11134 38.5417 1.30929C38.3338 1.5165 38.1717 1.76503 38.0658 2.03881C37.9599 2.31259 37.9126 2.60554 37.927 2.89873C37.9133 3.19053 37.961 3.48196 38.0668 3.75421C38.1727 4.02647 38.3345 4.27351 38.5417 4.47939C38.7412 4.67734 38.9786 4.83302 39.2396 4.93713C39.5006 5.04124 39.78 5.09164 40.0609 5.08531C40.3817 5.08696 40.6988 5.01684 40.989 4.8801C41.2792 4.74335 41.5352 4.54343 41.7382 4.29498L41.6767 4.23351L41.6152 4.29498L42.0806 4.76918L42.1509 4.70771L42.0806 4.64624C41.8398 4.92977 41.5402 5.1575 41.2025 5.31362C40.8452 5.47995 40.455 5.56398 40.0609 5.55951V5.73514C40.4822 5.73764 40.8988 5.64771 41.2815 5.47169C41.6403 5.30594 41.9582 5.06307 42.2124 4.7604L42.265 4.69893L41.7382 4.17204L41.6679 4.11057L41.6064 4.18082C41.4202 4.41072 41.1845 4.59565 40.917 4.72184C40.6494 4.84803 40.3568 4.91224 40.0609 4.90968C39.8028 4.91686 39.546 4.87152 39.306 4.77642C39.066 4.68132 38.8478 4.53844 38.6647 4.35645C38.4751 4.16568 38.3272 3.93758 38.2305 3.68664C38.1337 3.4357 38.0902 3.16739 38.1026 2.89873C38.09 2.62874 38.1335 2.35906 38.2302 2.10667C38.3269 1.85428 38.4748 1.62465 38.6647 1.43223C38.8478 1.25024 39.066 1.10736 39.306 1.01226C39.546 0.917158 39.8028 0.87182 40.0609 0.878998C40.3265 0.86758 40.591 0.919802 40.8324 1.03131C41.0737 1.14282 41.2849 1.31038 41.4484 1.52004L41.5098 1.5903L42.0543 1.06341L42.1158 0.993158L42.0631 0.931688C41.8159 0.645354 41.5078 0.417898 41.1614 0.265961C40.815 0.114024 40.439 0.0414492 40.0609 0.0535438C39.6864 0.0448354 39.314 0.112789 38.9667 0.253229C38.6194 0.393668 38.3044 0.60363 38.0412 0.870218C37.7759 1.13583 37.5675 1.45265 37.4286 1.80139C37.2897 2.15013 37.2233 2.52348 37.2333 2.89873C37.2239 3.27258 37.2908 3.64442 37.4296 3.99163C37.5685 4.33885 37.7766 4.65418 38.0412 4.91846C38.3044 5.18505 38.6194 5.39501 38.9667 5.53545C39.314 5.67589 39.6864 5.74384 40.0609 5.73514V5.64732Z" fill="#010100"/>
<path d="M44.8839 5.52448H44.2078V0.905442H42.7413V0.255615H46.3592V0.905442H44.8839V5.52448Z" fill="#010100"/>
<path d="M44.8825 5.52391V5.4361H44.2942V0.817063H42.8277V0.342865H46.27V0.817063H44.7947V5.52391H44.8825V5.4361V5.52391H44.9703V0.992692H46.4456V0.255051V0.167236H42.652V0.904877V0.992692H44.1185V5.61173H44.8825H44.9703V5.52391H44.8825Z" fill="#010100"/>
<path d="M51.0047 0.26416L49.0114 4.70757C48.9306 4.97317 48.7685 5.20672 48.5479 5.3753C48.3274 5.54387 48.0594 5.63897 47.7819 5.64718C47.6033 5.64466 47.427 5.60582 47.2638 5.53302L47.4395 4.90076C47.5448 4.96625 47.6668 4.99981 47.7907 4.99736C47.9197 5.00594 48.0483 4.97533 48.1595 4.90954C48.2609 4.816 48.3417 4.70235 48.3967 4.57585L48.5898 4.15434L46.8336 0.26416H47.6239L48.9235 3.28498L50.1968 0.26416H51.0047Z" fill="#010100"/>
<path d="M51.0037 0.263565H50.9247L48.9313 4.70697C48.8559 4.9555 48.7042 5.17402 48.4978 5.33161C48.2913 5.48921 48.0406 5.57789 47.7809 5.58512C47.6136 5.58211 47.4489 5.54317 47.298 5.47096V5.55877H47.377L47.5526 4.93529H47.4736V5.01433C47.5936 5.0839 47.73 5.12028 47.8688 5.1197C48.0141 5.12996 48.1589 5.093 48.2815 5.01433C48.4008 4.91525 48.4942 4.78868 48.5537 4.6455L48.7469 4.224L46.9906 0.421631H47.5965L48.8962 3.44245H49.0367L50.31 0.421631H51.0476V0.333818H50.9686H51.0476V0.246005H50.1695L48.8786 3.31951H48.9577V3.23169V3.31951H49.0455L47.7195 0.246005H46.7272L48.5449 4.224L48.3693 4.61038C48.3208 4.72358 48.249 4.82531 48.1585 4.90895C48.062 4.96193 47.9523 4.9863 47.8424 4.9792C47.735 4.97903 47.6293 4.95185 47.5351 4.90017L47.3858 4.76844L47.175 5.50609V5.57634H47.2453C47.4199 5.6529 47.6079 5.69466 47.7985 5.69928C48.0931 5.69199 48.378 5.59225 48.6128 5.41418C48.8476 5.2361 49.0205 4.9887 49.1069 4.70697L51.1618 0.140625H51.0213V0.228441L51.0037 0.263565Z" fill="#010100"/>
<path d="M51.7766 5.52448V0.255615H55.5877V5.52448H54.9115V0.905442H52.4527V5.52448H51.7766Z" fill="#010100"/>
<path d="M51.7751 5.52391H51.8629V0.342865H55.4985V5.4361H54.9979V0.817063H52.3635V5.4361H51.7751V5.52391H51.8629H51.7751V5.61173H52.4513H52.5391V0.992692H54.8223V5.61173H55.5863H55.6741V0.167236H51.6873V5.61173H51.7751V5.52391Z" fill="#010100"/>
<path d="M56.7916 5.52448V0.255615H57.4677V2.52123H60.1022V0.255615H60.7783V5.52448H60.1022V3.15349H57.4677V5.52448H56.7916Z" fill="#010100"/>
<path d="M56.7902 5.52391H56.878V0.342865H57.3786V2.60848H60.1886V0.342865H60.6892V5.4361H60.1886V3.06511H57.3786V5.4361H56.7902V5.52391H56.878H56.7902V5.61173H57.4664H57.5542V3.24074H60.013V5.61173H60.777H60.8648V0.167236H60.1008H60.013V2.43285H57.5542V0.167236H56.7902H56.7024V5.61173H56.7902V5.52391Z" fill="#010100"/>
<path d="M62.9298 4.409C63.1152 4.60001 63.338 4.75081 63.5843 4.85203C63.8305 4.95325 64.095 5.00272 64.3612 4.99736C64.6334 5.00931 64.905 4.96301 65.1579 4.86155C65.4108 4.76008 65.6392 4.6058 65.8277 4.409C66.023 4.21029 66.1759 3.97392 66.2771 3.71427C66.3782 3.45461 66.4255 3.17709 66.416 2.89859C66.4267 2.61864 66.38 2.33945 66.2788 2.0782C66.1776 1.81695 66.0241 1.57914 65.8277 1.3794C65.6432 1.18711 65.4205 1.03545 65.1741 0.934139C64.9276 0.832825 64.6627 0.78409 64.3963 0.79105C64.1301 0.785691 63.8657 0.835158 63.6194 0.936376C63.3732 1.03759 63.1504 1.1884 62.9649 1.3794C62.759 1.57517 62.5952 1.81085 62.4835 2.07205C62.3717 2.33326 62.3144 2.6145 62.3151 2.89859C62.306 3.17629 62.3526 3.45301 62.4521 3.71242C62.5516 3.97183 62.7021 4.20868 62.8947 4.409H62.9298ZM66.2931 4.84807C66.0449 5.10906 65.7447 5.31504 65.4119 5.4527C65.0791 5.59035 64.7212 5.65661 64.3612 5.64719C64.0012 5.65606 63.6434 5.58955 63.3107 5.45193C62.978 5.31431 62.6777 5.10862 62.4292 4.84807C62.1759 4.59182 61.9769 4.28708 61.8441 3.95211C61.7113 3.61714 61.6475 3.25881 61.6565 2.89859C61.6478 2.5371 61.7118 2.17755 61.8445 1.84119C61.9772 1.50484 62.1761 1.19851 62.4292 0.940332C62.6797 0.682348 62.9803 0.47836 63.3125 0.34093C63.6448 0.203499 64.0016 0.135535 64.3612 0.141222C64.7217 0.133469 65.08 0.201355 65.4127 0.340504C65.7454 0.479653 66.0453 0.686979 66.2931 0.949116C66.5476 1.20494 66.7479 1.5094 66.8822 1.84433C67.0165 2.17927 67.0819 2.53782 67.0746 2.89859C67.0819 3.25937 67.0165 3.61792 66.8822 3.95286C66.7479 4.28779 66.5476 4.59225 66.2931 4.84807Z" fill="#010100"/>
<path d="M62.9281 4.40877L62.8666 4.47024C63.0598 4.66986 63.2921 4.82747 63.5489 4.93324C63.8058 5.03901 64.0817 5.09065 64.3594 5.08495C64.6303 5.09213 64.8999 5.04449 65.1519 4.94489C65.4039 4.8453 65.6332 4.6958 65.8259 4.50537C66.0299 4.29893 66.1896 4.05306 66.2953 3.78279C66.401 3.51252 66.4504 3.22353 66.4406 2.93349C66.4506 2.64212 66.4013 2.35176 66.2956 2.08004C66.1899 1.80832 66.0301 1.56091 65.8259 1.35283C65.6321 1.15406 65.3997 0.997003 65.143 0.891297C64.8863 0.785592 64.6107 0.73347 64.3331 0.738132C64.0556 0.734495 63.7803 0.787085 63.5238 0.892731C63.2672 0.998377 63.0347 1.15489 62.8402 1.35283C62.6389 1.56252 62.4815 1.81041 62.3774 2.08188C62.2734 2.35336 62.2247 2.64292 62.2343 2.93349C62.2283 3.22458 62.2813 3.51388 62.3899 3.784C62.4986 4.05412 62.6607 4.29949 62.8666 4.50537L62.9281 4.4439L62.9895 4.38243C62.8048 4.19043 62.6606 3.96318 62.5655 3.71424C62.4705 3.46531 62.4265 3.19978 62.4363 2.93349C62.4268 2.66592 62.4709 2.39915 62.5659 2.14883C62.6609 1.89851 62.8049 1.66969 62.9895 1.47577C63.1666 1.29252 63.3798 1.14797 63.6156 1.05124C63.8514 0.954505 64.1047 0.907695 64.3594 0.913761C64.6143 0.907158 64.8677 0.953723 65.1036 1.05049C65.3394 1.14725 65.5526 1.29209 65.7293 1.47577C65.9172 1.66779 66.0639 1.89609 66.1605 2.14673C66.2572 2.39736 66.3017 2.66507 66.2913 2.93349C66.3015 3.20058 66.2569 3.46691 66.1602 3.7161C66.0636 3.96529 65.9169 4.19205 65.7293 4.38243C65.5526 4.56612 65.3394 4.71096 65.1036 4.80772C64.8677 4.90448 64.6143 4.95105 64.3594 4.94444C64.1047 4.95051 63.8514 4.9037 63.6156 4.80697C63.3798 4.71024 63.1666 4.56568 62.9895 4.38243L62.9281 4.4439V4.40877ZM66.2913 4.84785L66.2299 4.78638C65.9901 5.03963 65.6995 5.23939 65.3772 5.37256C65.0549 5.50573 64.708 5.56931 64.3594 5.55914C64.0122 5.56862 63.6669 5.50468 63.3461 5.37152C63.0253 5.23835 62.7362 5.03896 62.4978 4.78638C62.2502 4.53949 62.0556 4.24475 61.9257 3.92014C61.7959 3.59553 61.7336 3.24787 61.7426 2.89837C61.7317 2.54601 61.7931 2.19515 61.9229 1.86742C62.0528 1.53969 62.2485 1.24203 62.4978 0.992795C62.7362 0.740214 63.0253 0.540818 63.3461 0.407652C63.6669 0.274486 64.0122 0.210551 64.3594 0.220027C64.7084 0.213175 65.055 0.279136 65.377 0.413702C65.6991 0.548268 65.9895 0.748482 66.2299 1.00157C66.4746 1.25054 66.6673 1.54566 66.797 1.86978C66.9266 2.1939 66.9906 2.54055 66.9851 2.88959C66.9906 3.23863 66.9266 3.58528 66.797 3.90939C66.6673 4.23351 66.4746 4.52863 66.2299 4.7776L66.2913 4.83907L66.3616 4.90054C66.6215 4.63508 66.826 4.32057 66.9632 3.97534C67.1004 3.6301 67.1675 3.26102 67.1607 2.88959C67.1683 2.51727 67.1007 2.14725 66.9619 1.8017C66.8231 1.45615 66.6159 1.14219 66.3528 0.878635C66.1024 0.59859 65.7949 0.37535 65.4511 0.223893C65.1073 0.072435 64.7351 -0.00373717 64.3594 0.000490872C63.9882 -0.0065933 63.6196 0.0630679 63.2766 0.20511C62.9335 0.347152 62.6236 0.558515 62.366 0.825948C62.1067 1.0936 61.9026 1.40973 61.7655 1.75629C61.6284 2.10285 61.5609 2.47303 61.5669 2.84568C61.5601 3.21711 61.6273 3.58619 61.7645 3.93143C61.9017 4.27667 62.1062 4.59117 62.366 4.85663C62.6212 5.12711 62.9308 5.34051 63.2744 5.48278C63.6179 5.62505 63.9877 5.69298 64.3594 5.68208C64.7322 5.69092 65.1027 5.6221 65.4474 5.47999C65.7921 5.33788 66.1034 5.12559 66.3616 4.85663L66.2913 4.79516V4.84785Z" fill="#010100"/>
<path d="M70.5164 4.88257H71.8775C71.9966 4.88781 72.1153 4.86605 72.2248 4.81891C72.3343 4.77176 72.4317 4.70046 72.5098 4.61034C72.6646 4.44975 72.7525 4.23625 72.7556 4.0132C72.7479 3.792 72.657 3.58186 72.501 3.42485C72.4173 3.33707 72.3164 3.26756 72.2046 3.22071C72.0927 3.17386 71.9724 3.15067 71.8512 3.15262H70.5164V4.90891V4.88257ZM70.5164 2.52036H71.7458C71.8604 2.52399 71.9746 2.50316 72.0806 2.45925C72.1866 2.41534 72.282 2.34936 72.3605 2.2657C72.433 2.19301 72.4905 2.10673 72.5297 2.0118C72.5689 1.91688 72.589 1.81516 72.5888 1.71247C72.5887 1.50684 72.5102 1.30899 72.3693 1.15924C72.2942 1.07602 72.2018 1.01013 72.0987 0.96616C71.9956 0.922185 71.8842 0.901173 71.7721 0.904576H70.5164V2.52036ZM69.8402 5.53239V0.263528H71.7458C72.1416 0.25515 72.5254 0.399855 72.8171 0.667477C72.9634 0.795207 73.08 0.953313 73.1589 1.13076C73.2378 1.30822 73.277 1.50074 73.2738 1.6949C73.2782 1.93034 73.2075 2.16106 73.0718 2.35351C72.9472 2.54867 72.7666 2.7017 72.5537 2.79258C72.8079 2.87787 73.031 3.03682 73.1947 3.24922C73.3629 3.46471 73.4528 3.73107 73.4494 4.00442C73.4539 4.20686 73.4137 4.4078 73.3317 4.59297C73.2498 4.77813 73.128 4.94297 72.9752 5.07576C72.668 5.35552 72.2666 5.50917 71.8512 5.50605L69.8402 5.53239Z" fill="#010100"/>
<path d="M70.5139 4.88287V4.97068H71.875C72.0066 4.97339 72.1372 4.94819 72.2583 4.89672C72.3794 4.84526 72.4882 4.7687 72.5775 4.67211C72.7421 4.49166 72.8357 4.25768 72.841 4.01351C72.8362 3.77016 72.7388 3.5378 72.5688 3.36368C72.4774 3.26482 72.3658 3.18693 72.2415 3.13539C72.1172 3.08384 71.9832 3.05987 71.8487 3.06511H70.4261V4.97068H70.5139V4.88287H70.6017V3.24074H71.8487C71.958 3.23582 72.0671 3.25444 72.1686 3.29534C72.2701 3.33625 72.3617 3.39849 72.437 3.47784C72.5086 3.54758 72.5657 3.63083 72.6049 3.72278C72.6441 3.81473 72.6646 3.91355 72.6654 4.01351C72.6634 4.21358 72.5849 4.4053 72.4458 4.54917C72.3751 4.63018 72.2871 4.69432 72.1883 4.73687C72.0895 4.77942 71.9825 4.7993 71.875 4.79506H70.5139V4.88287ZM70.5139 2.52066V2.60848H71.7433C71.8696 2.61305 71.9954 2.59031 72.1121 2.54182C72.2288 2.49332 72.3336 2.42021 72.4195 2.32747C72.5817 2.16391 72.6732 1.94314 72.6741 1.71277C72.6755 1.48364 72.5873 1.26304 72.4283 1.09807C72.3444 1.00759 72.2424 0.935804 72.1289 0.887386C72.0154 0.838968 71.893 0.815007 71.7696 0.817063H70.4261V2.57335H70.5139V2.48554H70.6017V0.992692H71.7696C71.8688 0.99035 71.9672 1.00955 72.0582 1.04897C72.1491 1.08839 72.2305 1.14709 72.2965 1.22101C72.3613 1.28538 72.4125 1.36205 72.4472 1.4465C72.4819 1.53095 72.4993 1.62148 72.4985 1.71277C72.4973 1.89663 72.4249 2.07288 72.2965 2.20453C72.2264 2.2805 72.1406 2.34028 72.0451 2.37971C71.9496 2.41914 71.8466 2.43727 71.7433 2.43285H70.5139V2.52066ZM69.8377 5.53269H69.9255V0.351647H71.7433C72.1178 0.341549 72.481 0.480517 72.7532 0.73803C72.8906 0.856331 73.0004 1.00338 73.0747 1.16878C73.1491 1.33418 73.1862 1.51389 73.1835 1.69521C73.1886 1.91446 73.124 2.12969 72.999 2.30991C72.8765 2.48476 72.7098 2.62411 72.5161 2.71385H72.4634V2.85436H72.5248C72.7628 2.92953 72.9715 3.07683 73.122 3.27587C73.2801 3.47545 73.3639 3.7238 73.3591 3.97838C73.3626 4.16919 73.3243 4.35845 73.247 4.5329C73.1696 4.70735 73.055 4.86276 72.9112 4.98825C72.6198 5.25073 72.2409 5.39481 71.8487 5.39219H69.8377V5.48001V5.56782H71.8487C72.2849 5.57189 72.7061 5.40845 73.0254 5.11119C73.188 4.97114 73.3179 4.7971 73.4059 4.60137C73.4939 4.40563 73.5379 4.19297 73.5347 3.97838C73.5374 3.68614 73.4415 3.40152 73.2625 3.17049C73.0902 2.94189 72.8507 2.77299 72.5775 2.68751V2.76654H72.6654H72.5775V2.84558C72.803 2.74336 72.9971 2.58267 73.1396 2.38016C73.2814 2.17042 73.355 1.92201 73.3503 1.66886C73.3473 1.46633 73.3011 1.26676 73.2148 1.08352C73.1285 0.900272 73.004 0.737576 72.8498 0.60631C72.5413 0.322933 72.1358 0.16889 71.717 0.176018H69.7236V5.62051H69.8114V5.53269H69.8377Z" fill="#010100"/>
<path d="M82.8697 20.461H84.5118V9.48415H82.8697V20.461ZM97.6313 13.4358L95.7521 18.1953H95.6818L93.7323 13.4358H91.976L94.9003 20.0833L93.2406 23.8242H94.9442L99.449 13.4709L97.6313 13.4358ZM88.3405 19.214C87.8049 19.214 87.0496 18.9418 87.0496 18.2832C87.0496 17.405 87.9893 17.1064 88.8059 17.1064C89.3304 17.0937 89.8487 17.221 90.3076 17.4753C90.2502 17.9544 90.021 18.3964 89.6625 18.7194C89.304 19.0424 88.8406 19.2243 88.3581 19.2315L88.3405 19.214ZM88.5337 13.1987C87.9359 13.163 87.3406 13.3027 86.8211 13.6006C86.3016 13.8986 85.8805 14.3419 85.6095 14.876L87.0672 15.4819C87.2101 15.2162 87.4275 14.9982 87.6928 14.8546C87.9581 14.7111 88.2595 14.6483 88.5601 14.674C88.7685 14.6496 88.9797 14.667 89.1814 14.7252C89.3831 14.7834 89.5711 14.8811 89.7346 15.0127C89.8981 15.1443 90.0337 15.3071 90.1336 15.4917C90.2335 15.6763 90.2956 15.8789 90.3163 16.0878V16.202C89.7752 15.9174 89.1715 15.7725 88.5601 15.7804C86.997 15.7804 85.3987 16.6586 85.3987 18.248C85.4131 18.5873 85.4956 18.9203 85.6413 19.227C85.7871 19.5338 85.9932 19.808 86.2472 20.0334C86.5013 20.2587 86.7981 20.4306 87.1201 20.5388C87.442 20.6469 87.7824 20.6892 88.121 20.6629C88.5335 20.6885 88.9452 20.6025 89.313 20.414C89.6807 20.2255 89.9909 19.9414 90.211 19.5916H90.2724V20.4697H91.8531V16.2546C91.8531 14.3052 90.3954 13.225 88.5162 13.225L88.5337 13.1987ZM78.4087 14.7706H76.0816V11.0121H78.4087C78.6585 11.0086 78.9066 11.0546 79.1386 11.1472C79.3707 11.2399 79.5821 11.3775 79.7608 11.5521C79.9395 11.7267 80.0819 11.9349 80.1799 12.1648C80.2779 12.3946 80.3296 12.6415 80.3318 12.8913C80.3249 13.3952 80.1187 13.8758 79.7583 14.228C79.3978 14.5802 78.9126 14.7753 78.4087 14.7706ZM78.4087 9.50171H74.4834V20.4785H76.1255V16.3161H78.4087C79.3374 16.3397 80.2377 15.9945 80.9124 15.3559C81.5872 14.7174 81.9815 13.8375 82.0091 12.9089C81.9815 11.9803 81.5872 11.1004 80.9124 10.4619C80.2377 9.82332 79.3374 9.47808 78.4087 9.50171ZM56.9557 19.214C56.6704 19.2062 56.3896 19.1414 56.1297 19.0236C55.8698 18.9057 55.636 18.7372 55.4422 18.5277C55.2483 18.3183 55.0982 18.0723 55.0007 17.8041C54.9032 17.5359 54.8603 17.251 54.8745 16.9659C54.8591 16.6789 54.901 16.3917 54.9976 16.1209C55.0942 15.8502 55.2437 15.6014 55.4374 15.3889C55.631 15.1765 55.865 15.0047 56.1256 14.8834C56.3863 14.7622 56.6684 14.694 56.9557 14.6828C57.2381 14.6971 57.5148 14.7681 57.7692 14.8916C58.0237 15.015 58.2507 15.1885 58.4367 15.4015C58.6227 15.6146 58.7639 15.8629 58.8519 16.1316C58.9399 16.4004 58.973 16.6841 58.949 16.9659C58.9705 17.2454 58.9355 17.5264 58.8462 17.7921C58.7568 18.0578 58.6149 18.3028 58.429 18.5126C58.243 18.7223 58.0167 18.8925 57.7636 19.013C57.5105 19.1335 57.2357 19.2019 56.9557 19.214ZM58.7998 14.0505C58.5483 13.7818 58.2434 13.5687 57.9046 13.425C57.5658 13.2813 57.2007 13.2102 56.8327 13.2163C55.8645 13.2506 54.9479 13.6618 54.2786 14.3623C53.6093 15.0628 53.2401 15.9971 53.2499 16.9659C53.2449 17.93 53.6166 18.8579 54.2859 19.5518C54.9552 20.2457 55.8691 20.6507 56.8327 20.6805C57.2046 20.685 57.573 20.6088 57.9126 20.4572C58.2521 20.3056 58.5548 20.0822 58.7998 19.8023V20.338C58.7998 21.7694 58.0358 22.5334 56.8064 22.5334C56.3959 22.5231 55.9978 22.3906 55.663 22.1528C55.3283 21.915 55.072 21.5828 54.9271 21.1986L53.4958 21.7957C53.7652 22.4511 54.2243 23.0111 54.8142 23.4038C55.404 23.7965 56.0978 24.0041 56.8064 23.9999C58.7295 23.9999 60.319 22.8671 60.319 20.1097V13.4095H58.7998V14.0154V14.0505ZM61.4869 20.461H63.1905V9.48415H61.522V20.461H61.4869ZM65.5878 16.7991C65.5749 16.5268 65.6165 16.2546 65.7102 15.9986C65.8039 15.7425 65.9478 15.5078 66.1335 15.3082C66.3192 15.1086 66.543 14.9481 66.7916 14.8362C67.0402 14.7242 67.3086 14.6631 67.5812 14.6564C67.8645 14.6378 68.147 14.7027 68.3936 14.8432C68.6403 14.9837 68.8402 15.1936 68.9687 15.4467L65.5878 16.7991ZM70.681 15.5521C70.4506 14.88 70.0217 14.2936 69.451 13.8703C68.8803 13.447 68.1947 13.2067 67.4846 13.1811C67.0043 13.1802 66.5288 13.2778 66.0877 13.4679C65.6466 13.658 65.2491 13.9365 64.9199 14.2863C64.5907 14.6361 64.3367 15.0497 64.1737 15.5015C64.0106 15.9534 63.942 16.4338 63.972 16.9132C63.9601 17.4044 64.0476 17.8929 64.2293 18.3493C64.411 18.8057 64.6831 19.2208 65.0292 19.5694C65.3754 19.918 65.7885 20.193 66.2436 20.3779C66.6988 20.5628 67.1866 20.6538 67.6778 20.6454C68.2921 20.6487 68.8976 20.4996 69.4401 20.2115C69.9826 19.9234 70.4452 19.5052 70.7864 18.9945L69.5131 18.1163C69.3237 18.4337 69.0548 18.6962 68.733 18.878C68.4111 19.0597 68.0474 19.1543 67.6778 19.1525C67.2976 19.1776 66.9184 19.0892 66.5885 18.8984C66.2587 18.7077 65.9929 18.4232 65.8249 18.0812L70.8216 16.0175L70.6547 15.5873L70.681 15.5521ZM30.8923 14.3227V15.9209H34.6859C34.6264 16.6654 34.317 17.3679 33.8078 17.9143C33.4292 18.3023 32.9731 18.606 32.4693 18.8057C31.9654 19.0055 31.4251 19.0967 30.8836 19.0735C30.3325 19.0735 29.7869 18.9641 29.2784 18.7517C28.7699 18.5392 28.3087 18.2279 27.9215 17.8358C27.5343 17.4437 27.2288 16.9786 27.0228 16.4675C26.8167 15.9564 26.7142 15.4094 26.7212 14.8584C26.7142 14.3074 26.8167 13.7604 27.0228 13.2493C27.2288 12.7382 27.5343 12.2731 27.9215 11.881C28.3087 11.4889 28.7699 11.1776 29.2784 10.9651C29.7869 10.7526 30.3325 10.6433 30.8836 10.6433C31.9474 10.6276 32.974 11.0351 33.7375 11.7761L34.8616 10.6521C34.3379 10.1348 33.7164 9.72709 33.0334 9.45268C32.3504 9.17827 31.6195 9.04269 30.8836 9.05386C29.3367 9.05372 27.8521 9.66273 26.7509 10.7491C25.6498 11.8354 25.0208 13.3117 25 14.8584C25.0208 16.4043 25.6501 17.8796 26.7515 18.9646C27.8529 20.0495 29.3375 20.6566 30.8836 20.6541C31.6352 20.6881 32.3854 20.5607 33.0837 20.2805C33.782 20.0002 34.4122 19.5737 34.9318 19.0296C35.8518 18.0188 36.343 16.69 36.3017 15.3238C36.3066 14.9909 36.2772 14.6584 36.2139 14.3315L30.8923 14.3227ZM40.6222 19.1789C40.3339 19.1722 40.0498 19.1078 39.7868 18.9896C39.5237 18.8714 39.287 18.7017 39.0906 18.4906C38.8942 18.2794 38.742 18.031 38.6431 17.7601C38.5442 17.4893 38.5005 17.2013 38.5146 16.9132C38.4993 16.6249 38.5421 16.3364 38.6405 16.065C38.739 15.7936 38.8911 15.5448 39.0878 15.3333C39.2844 15.1219 39.5216 14.9523 39.7852 14.8345C40.0489 14.7167 40.3335 14.6531 40.6222 14.6476C40.9109 14.6531 41.1955 14.7167 41.4591 14.8345C41.7227 14.9523 41.9599 15.1219 42.1566 15.3333C42.3533 15.5448 42.5053 15.7936 42.6038 16.065C42.7023 16.3364 42.7451 16.6249 42.7297 16.9132C42.7439 17.2013 42.7002 17.4893 42.6013 17.7601C42.5024 18.031 42.3502 18.2794 42.1538 18.4906C41.9574 18.7017 41.7206 18.8714 41.4576 18.9896C41.1945 19.1078 40.9105 19.1722 40.6222 19.1789ZM40.6222 13.1811C40.1234 13.1679 39.6272 13.2562 39.1637 13.4407C38.7002 13.6253 38.279 13.9021 37.9258 14.2545C37.5726 14.6069 37.2948 15.0274 37.1092 15.4905C36.9236 15.9536 36.8341 16.4496 36.8462 16.9484C36.8402 17.4416 36.9333 17.931 37.1198 18.3877C37.3064 18.8443 37.5827 19.2589 37.9323 19.6069C38.2819 19.9548 38.6978 20.2292 39.1553 20.4136C39.6128 20.598 40.1026 20.6887 40.5958 20.6805C41.089 20.6887 41.5789 20.598 42.0364 20.4136C42.4939 20.2292 42.9098 19.9548 43.2594 19.6069C43.609 19.2589 43.8853 18.8443 44.0718 18.3877C44.2584 17.931 44.3515 17.4416 44.3455 16.9484C44.3527 16.4548 44.2604 15.9648 44.0743 15.5076C43.8882 15.0505 43.612 14.6354 43.2621 14.2872C42.9122 13.9389 42.4959 13.6647 42.0378 13.4807C41.5798 13.2967 41.0894 13.2068 40.5958 13.2163L40.6222 13.1811ZM48.7977 19.1789C48.5094 19.1722 48.2253 19.1078 47.9623 18.9896C47.6992 18.8714 47.4625 18.7017 47.2661 18.4906C47.0697 18.2794 46.9175 18.031 46.8186 17.7601C46.7197 17.4893 46.676 17.2013 46.6902 16.9132C46.6748 16.6249 46.7176 16.3364 46.8161 16.065C46.9145 15.7936 47.0666 15.5448 47.2633 15.3333C47.46 15.1219 47.6972 14.9523 47.9608 14.8345C48.2244 14.7167 48.509 14.6531 48.7977 14.6476C49.0888 14.6541 49.3755 14.7195 49.6406 14.84C49.9056 14.9605 50.1435 15.1335 50.3397 15.3486C50.5359 15.5637 50.6864 15.8164 50.7821 16.0914C50.8778 16.3664 50.9167 16.6579 50.8965 16.9484C50.9106 17.2364 50.8669 17.5244 50.768 17.7953C50.6691 18.0662 50.5169 18.3145 50.3205 18.5257C50.1241 18.7368 49.8874 18.9065 49.6243 19.0247C49.3613 19.143 49.0772 19.2073 48.7889 19.214L48.7977 19.1789ZM48.7977 13.1811C48.3042 13.1717 47.8138 13.2616 47.3557 13.4456C46.8976 13.6295 46.4813 13.9038 46.1314 14.252C45.7816 14.6003 45.5053 15.0153 45.3192 15.4725C45.1331 15.9297 45.0409 16.4197 45.048 16.9132C45.0421 17.4065 45.1351 17.8959 45.3217 18.3525C45.5083 18.8092 45.7845 19.2238 46.1341 19.5717C46.4838 19.9197 46.8996 20.194 47.3571 20.3784C47.8146 20.5629 48.3045 20.6536 48.7977 20.6454C49.2909 20.6536 49.7808 20.5629 50.2383 20.3784C50.6958 20.194 51.1116 19.9197 51.4613 19.5717C51.8109 19.2238 52.0871 18.8092 52.2737 18.3525C52.4603 17.8959 52.5533 17.4065 52.5474 16.9132C52.5545 16.4197 52.4623 15.9297 52.2762 15.4725C52.0901 15.0153 51.8138 14.6003 51.464 14.252C51.1141 13.9038 50.6978 13.6295 50.2397 13.4456C49.7816 13.2616 49.2912 13.1717 48.7977 13.1811Z" fill="#010100"/>
<path d="M0.4 1.06079C0.16 1.30079 0 1.70079 0 2.18079V19.8608C0 20.3408 0.16 20.7408 0.4 20.9808L0.48 21.0608L10.4 11.1408V11.0608V10.9808L0.4 1.06079Z" fill="url(#paint0_linear_2_4421)"/>
<path d="M13.68 14.5009L10.4 11.2209V11.0609V10.9809L13.68 7.70093L13.76 7.78093L17.68 10.0209C18.8 10.6609 18.8 11.7009 17.68 12.3409L13.68 14.5009Z" fill="url(#paint1_linear_2_4421)"/>
<path d="M13.76 14.4208L10.4 11.0608L0.400024 21.0608C0.800024 21.4608 1.36002 21.4608 2.08002 21.1408L13.76 14.4208Z" fill="url(#paint2_linear_2_4421)"/>
<path d="M13.76 7.70083L2.08002 1.06083C1.36002 0.660832 0.800024 0.740832 0.400024 1.14083L10.4 11.0608L13.76 7.70083Z" fill="url(#paint3_linear_2_4421)"/>
<path opacity="0.2" d="M13.68 14.3408L2.08002 20.9008C1.44002 21.3008 0.880025 21.2208 0.480025 20.9008L0.400024 20.9808L0.480025 21.0608C0.880025 21.3808 1.44002 21.4608 2.08002 21.0608L13.68 14.3408Z" fill="black"/>
<path opacity="0.12" d="M0.400078 20.9008C0.160078 20.6608 0.0800781 20.2608 0.0800781 19.7808V19.8608C0.0800781 20.3408 0.240078 20.7408 0.480078 20.9808V20.9008H0.400078Z" fill="black"/>
<path opacity="0.12" d="M17.6801 12.1008L13.6801 14.3408L13.7601 14.4208L17.6801 12.1808C18.2401 11.8608 18.4801 11.4608 18.4801 11.0608C18.4801 11.4608 18.1601 11.7808 17.6801 12.1008Z" fill="black"/>
<path opacity="0.25" d="M2.08008 1.14084L17.6801 10.0208C18.1601 10.3408 18.4801 10.6608 18.4801 11.0608C18.4801 10.6608 18.2401 10.2608 17.6801 9.94084L2.08008 1.06084C0.960078 0.420841 0.0800781 0.980841 0.0800781 2.26084V2.34084C0.0800781 1.06084 0.960078 0.500841 2.08008 1.14084Z" fill="white"/>
<defs>
<linearGradient id="paint0_linear_2_4421" x1="9.51976" y1="2.02855" x2="-3.90616" y2="15.4545" gradientUnits="userSpaceOnUse">
<stop stop-color="#00A0FF"/>
<stop offset="0.00657445" stop-color="#00A1FF"/>
<stop offset="0.2601" stop-color="#00BEFF"/>
<stop offset="0.5122" stop-color="#00D2FF"/>
<stop offset="0.7604" stop-color="#00DFFF"/>
<stop offset="1" stop-color="#00E3FF"/>
</linearGradient>
<linearGradient id="paint1_linear_2_4421" x1="19.1475" y1="11.062" x2="-0.209974" y2="11.062" gradientUnits="userSpaceOnUse">
<stop stop-color="#FFE000"/>
<stop offset="0.4087" stop-color="#FFBD00"/>
<stop offset="0.7754" stop-color="#FFA500"/>
<stop offset="1" stop-color="#FF9C00"/>
</linearGradient>
<linearGradient id="paint2_linear_2_4421" x1="11.9416" y1="12.8977" x2="-6.26502" y2="31.1043" gradientUnits="userSpaceOnUse">
<stop stop-color="#FF3A44"/>
<stop offset="1" stop-color="#C31162"/>
</linearGradient>
<linearGradient id="paint3_linear_2_4421" x1="-2.08214" y1="-4.79821" x2="6.04794" y2="3.33179" gradientUnits="userSpaceOnUse">
<stop stop-color="#32A071"/>
<stop offset="0.0685" stop-color="#2DA771"/>
<stop offset="0.4762" stop-color="#15CF74"/>
<stop offset="0.8009" stop-color="#06E775"/>
<stop offset="1" stop-color="#00F076"/>
</linearGradient>
</defs>
</svg>
